/* XPM */
static char *_cf7acfb19074d54f04237b7c9b168f4ptcT4nrpevPv5uKC[] = {
/* columns rows colors chars-per-pixel */
"32 32 234 2 ",
"   c #080703",
".  c #170600",
"X  c #0E1605",
"o  c #0B1802",
"O  c #0C160C",
"+  c #0A180B",
"@  c #12130D",
"#  c #181606",
"$  c #170C1A",
"%  c #0E1513",
"&  c #0E1810",
"*  c #121312",
"=  c #1A1B15",
"-  c #161C1A",
";  c #260300",
":  c #290700",
">  c #390E00",
",  c #271E01",
"<  c #2C1D01",
"1  c #271606",
"2  c #341400",
"3  c #3B1400",
"4  c #331B01",
"5  c #3C1B00",
"6  c #221E12",
"7  c #361D18",
"8  c #1D270F",
"9  c #1E241B",
"0  c #1E2615",
"q  c #252002",
"w  c #2E2204",
"e  c #2C210C",
"r  c #21200E",
"t  c #312004",
"y  c #3F2407",
"u  c #242318",
"i  c #353114",
"p  c #1B1927",
"a  c #251929",
"s  c #271B31",
"d  c #1B2325",
"f  c #232321",
"g  c #292C32",
"h  c #312F33",
"j  c #410D00",
"k  c #411404",
"l  c #471807",
"z  c #4B2800",
"x  c #572700",
"c  c #583504",
"v  c #4A3524",
"b  c #D2A23C",
"n  c #FEB53C",
"m  c #FDBC3E",
"M  c #FBBB38",
"N  c #EEC238",
"B  c #BAA562",
"V  c #DAAC49",
"C  c #D9B44B",
"Z  c #D9A85B",
"A  c #DAB75C",
"S  c #CFA85D",
"D  c #FDAE4D",
"F  c #F1AA4E",
"G  c #E3BA4C",
"H  c #E8B849",
"J  c #FEB444",
"K  c #FCBB44",
"L  c #FFB44C",
"P  c #F5BE4D",
"I  c #FDBB4C",
"U  c #E7AE5C",
"Y  c #E9AC5A",
"T  c #FEAE5B",
"R  c #FDAE55",
"E  c #E4B454",
"W  c #ECBB54",
"Q  c #ECBC5B",
"!  c #E4B85A",
"~  c #F5B553",
"^  c #FEB554",
"/  c #F3BD53",
"(  c #FCBB54",
")  c #FEB55C",
"_  c #F5BC59",
"`  c #FDBA5C",
"'  c #F2B65E",
"]  c #E3A542",
"[  c #C19674",
"{  c #DEAE6C",
"}  c #D5B462",
"|  c #D9B566",
" . c #DCAD73",
".. c #D9AA7B",
"X. c #D7B27C",
"o. c #D9B774",
"O. c #CEAB71",
"+. c #E3AD62",
"@. c #E2AD6A",
"#. c #FFAE64",
"$. c #F8AA6A",
"%. c #ECBB65",
"&. c #E4BD6A",
"*. c #E9B766",
"=. c #F7B764",
"-. c #FFB364",
";. c #F4BC64",
":. c #FDB965",
">. c #F5B76B",
",. c #FBB469",
"<. c #F4BB6B",
"1. c #FABC6D",
"2. c #E3AC73",
"3. c #E5AB79",
"4. c #EBB774",
"5. c #EABC74",
"6. c #E5BE7A",
"7. c #E8B67A",
"8. c #F2B676",
"9. c #F2BB74",
"0. c #FBBC75",
"q. c #F2BC7D",
"w. c #F6B67B",
"e. c #FFA973",
"r. c #ECC64C",
"t. c #F6C348",
"y. c #E5C45D",
"u. c #F4C05C",
"i. c #FAC45B",
"p. c #F9C756",
"a. c #DEC567",
"s. c #D8C777",
"d. c #E8C267",
"f. c #F4C363",
"g. c #F8C866",
"h. c #F6C170",
"j. c #F5C478",
"k. c #F1CF6E",
"l. c #A7AAAA",
"z. c #BFBBAF",
"x. c #ADA6B2",
"c. c #B6AAB8",
"v. c #BDB6B6",
"b. c #BDB8B3",
"n. c #B8B9B9",
"m. c #CB9D85",
"M. c #D3B287",
"N. c #D6B78F",
"B. c #E5BE85",
"V. c #F8B884",
"C. c #E5BA93",
"Z. c #FAAF9C",
"A. c #61D3FC",
"S. c #D5BEAA",
"D. c #CEBEBF",
"F. c #C2B9BA",
"G. c #D2BDBC",
"H. c #E1BAA5",
"J. c #E2B5BA",
"K. c #AEC1BF",
"L. c #B4C2BC",
"P. c #61D3FC",
"I. c #61D3FC",
"U. c #BAC9B4",
"Y. c #D8C287",
"T. c #CCC794",
"R. c #D1C29F",
"E. c #D1C595",
"W. c #F7C486",
"Q. c #FFC198",
"!. c #FFDD97",
"~. c #FFEE9E",
"^. c #FFE28B",
"/. c #61D3FC",
"(. c #61D3FC",
"). c #61D3FC",
"_. c #61D3FC",
"`. c #61D3FC",
"'. c #61D3FC",
"]. c #61D3FC",
"[. c #61D3FC",
"{. c #61D3FC",
"}. c #61D3FC",
"|. c #61D3FC",
" X c #CBC8BA",
".X c #FFD5AA",
"XX c #FFDDB7",
"oX c #FFECA6",
"OX c #FFE8AA",
"+X c #FFE7B3",
"@X c #FEEBB3",
"#X c #FFE4BD",
"$X c #FDECBB",
"%X c #61D3FC",
"&X c #61D3FC",
"*X c #61D3FC",
"=X c #61D3FC",
"-X c #61D3FC",
";X c #61D3FC",
":X c #61D3FC",
">X c #61D3FC",
",X c #61D3FC",
"<X c #61D3FC",
"1X c #61D3FC",
"2X c #61D3FC",
"3X c #61D3FC",
"4X c #61D3FC",
"5X c #61D3FC",
"6X c #61D3FC",
"7X c #61D3FC",
"8X c #61D3FC",
"9X c #61D3FC",
"0X c #61D3FC",
"qX c #61D3FC",
"wX c #61D3FC",
"eX c #61D3FC",
"rX c #61D3FC",
"tX c #61D3FC",
"yX c #61D3FC",
"uX c #61D3FC",
"iX c #61D3FC",
"pX c #61D3FC",
"aX c #61D3FC",
"sX c #61D3FC",
"dX c #61D3FC",
"fX c #61D3FC",
"gX c #61D3FC",
"hX c #61D3FC",
"jX c #61D3FC",
"kX c #FFDEC8",
"lX c #FFE3C3",
"zX c #FEEAC3",
"xX c #FDE7CC",
"cX c #FFE9D7",
/* pixels */
"7X4X3X3X8X3XH.w.-.L N N I ) :.:._ E j > 1 = 3X4XfX%XtXP.L.uX&X=X",
"2X2XwXtX8XwXC.0.-.I t.r.( ) R F g.V x 3 . f l.1Xn.%XwXrX5XsX&X*X",
"(.[.{.wX3X'.B.` ^ L H G ' :.` i.W %. .[ v = d g tXhX1X2XL.2X%XpX",
")./.}.&XtX/.5._ ) ` f.d.8.8.;.i.Q %.W...4     d x.yXn.iX2XuX%X=X",
"}.}.-X-X&XS.7.,.$.V.!.+XlXXX!.^.k.&.q...y 1 9 d tXhXwXrXL.uXyXpX",
"-X-X-XG.S.C.9.>.V.Q..X+XlX#XoX~.} S W...5 . = - x.x.iXwXn.1XyXpX",
"&XD.].R.Y.d.;.>.XX.XW.5.w.8.*.| z c @.{ z . = d d h n.rXuXiXwXv.",
"*X&X/.E.a.y./ =.zX.Xj.%.1.1.Q A 2 5 @.+.x < = - % - n.wX1XtXiXeX",
"fXtX[.T.a.r.P ;.#X#Xh.~ ` ^ / E 4 5 +.<.7.M.u % % f b.wXtXtXwXwX",
"dXtX2XT.d.P P ;.#X#Xh.~ ) ^ I E 4 4 +.:.4.M.u % % u b.eXtXtXwX{.",
"6X6X7X'.6./ I ;.#X#X0.T -.T K G 4 4 U ` <.X.e % O 9 b.eXtXtXwX{.",
"3X3X9X'.7.^ I u.$X#X0.T #.T K G < < U ( =. .e * O 9 b.eXtXtX{.|.",
"|.P.4X].<.J m u.@X+Xf.J ^ L m C < < U ( _ { e & O 9 b.eX:XtX{.|.",
"'.|.4X/.=.J K u.$X+Xi.n L L K A , < U I ^ @.w & O 9 b.eX:XfX{.|.",
"eXtX3X`.:.L ^ 9.cXzXf.n ^ ) ;.o.6 < E I ^ +.w * + 9 b.eX:XfXP.|.",
"*XtX6X`.-.J ) V.cXxXf.n ^ -.9.M.6 < U I ^ @.t @ + 0 b.eX:XdXP.I.",
"tXtX7X/._ n ^ q.xX$Xf.J ^ -.w.N.r , U ` -.3.t X o 8 b.yX>XgX1XI.",
"tX3X9X/._ n ^ 9.zX$Xf.J ^ ) >.X.q , +.) -.3.4 X o 8 b.yX<XgX1XI.",
"wX3X8X}.>.J ^ <.@XOXf.J L J K A q < +.` -.2.t X o 0 b.yX>XdX1XI.",
"|.wX6X}.<.L ^ <.@X+X1.D L J M G < < U ( ) @.t @ O u b.yXfXdXP.I.",
").(.2X/.%.I ^ 1.#X#XV.#.#.D m G 4 4 U ( ( @.t @ @ f F.yXfXtXP.[.",
"(.[.|._.%.I ) 0.lXkXV.e.#.R K E 4 2 Y I ( | t @ * a F.yXtXtX|.[.",
"*XyXwX_.&./ ,.V.xXkXV.,.-.^ I ! 4 3 Y I P A w @ $ a =XyXwXwX'.[.",
">X:XeX_.d.W =.w.lXXXV.*.` _ / A 3 3 Y ( / | w * $ s =XyXwX{.'.'.",
",X*X].E.a.r./ ;.OXOX| k.Q W g.} 2 k *.~ g.} q * $ a =X%Xn.P. X X",
";X-X}.R.s.d.Q ;.!.oX} | o.| | o.5 x Z g.&.B i * a h c.wXrXrX{.A.",
";X;X*XD._.Y.5.<.j. .c : l k : 5 .. .j.+.z < # f x.c.yXwXn.P.{.aX",
"eX*X:X*X}.R.6.<.<.Z z ; k l 3 z 6.4.4.2.2 # # f yXhXyXiXL.P.F.eX",
"'.{.*X:XwX).6._ I t.C A Z | V C ! *.q.C.4 # # = l.eXn.iX2XuX%X&X",
"jX'.wXtX3X'.B.=.J M r.k.W i.p.P H f.3.m.7   9 g }.jX{.rXK.4XwXpX",
"jXI.wXtX9XtXH.V.0.D V G ] ` ` ~ p.b x > $ g l.z.'.wXuX5X7X%X%XpX",
"jXI.wX3X8XdXJ.Z.e.-.u.i.~ :.T ` t.H k ; a p 1XsX XA.rX1XqX0XtX&X"
};
