/* XPM */
static char *f162d5a1bc1b449c8bb4e9a9285dc81amw5nKra8avrKQ50V[] = {
/* columns rows colors chars-per-pixel */
"32 32 3 1 ",
"  c #67D5FC",
". c #61D3FC",
"X c white",
/* pixels */
"                                ",
"................................",
"................................",
"................................",
"................................",
"................................",
"................................",
"................................",
"................................",
"................................",
"................................",
"................................",
"................................",
"................................",
"................................",
"................................",
"................................",
"................................",
"................................",
"................................",
"................................",
"................................",
"................................",
"................................",
"................................",
"................................",
"................................",
"................................",
"................................",
"................................",
"................................",
"................................"
};
