/* XPM */
static char *d2e6289ffa3d4493de59995e50100b68T6T6jw9sPhuxpTnk[] = {
/* columns rows colors chars-per-pixel */
"32 32 203 2 ",
"   c #015407",
".  c #005A03",
"X  c #005708",
"o  c #114A15",
"O  c #0D5711",
"+  c #1D5F1D",
"@  c #016D07",
"#  c #0A640D",
"$  c #007504",
"%  c #007D03",
"&  c #04740C",
"*  c #08730E",
"=  c #037C0B",
"-  c #08790F",
";  c #0D6913",
":  c #1A651C",
">  c #136F18",
",  c #126A14",
"<  c #0B7C14",
"1  c #0B7714",
"2  c #127C14",
"3  c #147E1B",
"4  c #19781E",
"5  c #16761D",
"6  c #215F20",
"7  c #1A6E20",
"8  c #1B6321",
"9  c #197B20",
"0  c #1A7623",
"q  c #227928",
"w  c #008301",
"e  c #008D04",
"r  c #00840C",
"t  c #048B0D",
"y  c #009303",
"u  c #009C01",
"i  c #02960C",
"p  c #019B0D",
"a  c #038210",
"s  c #0B8514",
"d  c #038E11",
"f  c #0A8F12",
"g  c #0F851C",
"h  c #108117",
"j  c #14841D",
"k  c #158B1E",
"l  c #1A8C1C",
"z  c #049512",
"x  c #0C9315",
"c  c #029C13",
"v  c #0A9B12",
"b  c #11971A",
"n  c #1D9B1E",
"m  c #208D18",
"M  c #00A500",
"N  c #00AB02",
"B  c #01A50C",
"V  c #01AB0D",
"C  c #14AF0D",
"Z  c #00B302",
"A  c #00B800",
"S  c #01B30C",
"D  c #01BB0C",
"F  c #02A413",
"G  c #02AB13",
"H  c #05A51A",
"J  c #09A51D",
"K  c #03AB1C",
"L  c #09AC1C",
"P  c #0CAD14",
"I  c #02B212",
"U  c #09B314",
"Y  c #01BC14",
"T  c #0ABD15",
"R  c #01B31C",
"E  c #00B919",
"W  c #0AB71D",
"Q  c #12B413",
"!  c #0C8E29",
"~  c #168620",
"^  c #138A21",
"/  c #198B2B",
"(  c #1F982F",
")  c #139A22",
"_  c #208A28",
"`  c #279323",
"'  c #219832",
"]  c #0CA820",
"[  c #0FB722",
"{  c #05BB25",
"}  c #0EBC24",
"|  c #12BD25",
" . c #17BA28",
".. c #15A72A",
"X. c #20B92B",
"o. c #22BF32",
"O. c #00C407",
"+. c #01C40B",
"@. c #09D40A",
"#. c #02D00B",
"$. c #02C414",
"%. c #0AC215",
"&. c #00CB14",
"*. c #01C41A",
"=. c #0CC41B",
"-. c #03CB1B",
";. c #0ACB1C",
":. c #0ACA15",
">. c #10C118",
",. c #11CC1B",
"<. c #03D414",
"1. c #0BD315",
"2. c #02D913",
"3. c #09DD17",
"4. c #03D41C",
"5. c #0BD51B",
"6. c #03D91B",
"7. c #0CD91A",
"8. c #15D313",
"9. c #12D51C",
"0. c #01E21C",
"q. c #0CC425",
"w. c #02CB22",
"e. c #0ECB22",
"r. c #0FCC28",
"t. c #08C62B",
"y. c #11CA26",
"u. c #18CA2E",
"i. c #13CC28",
"p. c #05D523",
"a. c #0BD523",
"s. c #05D922",
"d. c #0AD821",
"f. c #0CD62C",
"g. c #12D425",
"h. c #14D52D",
"j. c #0BC931",
"k. c #14C431",
"l. c #20D926",
"z. c #5CAC4B",
"x. c #5DA34B",
"c. c #47B447",
"v. c #43B64E",
"b. c #55B84C",
"n. c #4CB558",
"m. c #5BB05F",
"M. c #50BC59",
"N. c #6CB55B",
"B. c #66976A",
"V. c #5BAC62",
"C. c #5AA560",
"Z. c #5AB361",
"A. c #6AAC6F",
"S. c #76A07A",
"D. c #72AC72",
"F. c #70BE73",
"G. c #7BB47F",
"H. c #26C141",
"J. c #97C795",
"K. c #61D3FC",
"L. c #61D3FC",
"P. c #61D3FC",
"I. c #61D3FC",
"U. c #61D3FC",
"Y. c #61D3FC",
"T. c #61D3FC",
"R. c #61D3FC",
"E. c #61D3FC",
"W. c #61D3FC",
"Q. c #61D3FC",
"!. c #61D3FC",
"~. c #61D3FC",
"^. c #61D3FC",
"/. c #61D3FC",
"(. c #61D3FC",
"). c #61D3FC",
"_. c #61D3FC",
"`. c #61D3FC",
"'. c #61D3FC",
"]. c #61D3FC",
"[. c #61D3FC",
"{. c #61D3FC",
"}. c #61D3FC",
"|. c #61D3FC",
" X c #61D3FC",
".X c #61D3FC",
"XX c #61D3FC",
"oX c #61D3FC",
"OX c #61D3FC",
"+X c #61D3FC",
"@X c #61D3FC",
"#X c #61D3FC",
"$X c #61D3FC",
"%X c #61D3FC",
"&X c #61D3FC",
"*X c #61D3FC",
"=X c #61D3FC",
"-X c #61D3FC",
";X c #61D3FC",
":X c #61D3FC",
">X c #61D3FC",
",X c #61D3FC",
"<X c #61D3FC",
/* pixels */
"V.  5 & = r e y e e e y y y y y y y y G I N Z N u G V M Z V 2 x.",
"V.X 9 1 s z c c F H H L L L L P C Q R j.h.e.9.;.T u.r.-.-.q.` N.",
"V.. 3 - d z F F F F F F G G G V S S E w.f.5.7.1.Y i.e.-.&.q.m z.",
"V.. 3 = t i p B B F G G G G G V N S Y w.p.4.2.<.D ;.;.$.&.=.l z.",
"Z.. j = t i p B G G G G G G U S S D Y p.s.6.3.<.+.a.5.&.-.y.n b.",
"m.. 3 = t i B B B B V G G G V V S D Y w.p.<.<.#.O.5.<.+.$.q.b c.",
"V.  9 - t i p B G G G G G G G G U U Y w.g.5.9.1.O.7.4.&.*.k.) v.",
"A.O q 2 s x p F F F G G G G G G P U I e.g.9.9.1.O.5.a.*.t.H.( n.",
"B.o 8 ; 3 s z i p p c c p p F F p B I S %.=.D +.Z :.%.G ..' 0 V.",
"L.S.G.C.; $ $ w w e e e y y y y y u N M Z Z M M N M u w M.F.D.J.",
",X'.+XU.7 3 r t z c H J ] L L L { q.h.p.a.a.%.,.l.>. .k I.].|.>X",
"@X`.].R.O > - % d z c H H H H K I *.a.4.4.4.$.=.,.T X.j P.[.}.W.",
"-XE.'.).: > h r z c H L L K K R I *.d.2.6.s.&.;.&.=.o._ K.}.%XXX",
":XQ.{.^.+ # < r z c F F G G G G I *.7.2.2.6.&.&.<.-.| / K.;X*X*X",
".X*X{.).6 , h r z c F G G I I I I %.8.@.2.6.&.<.0.&.{ ! P.<X=XoX",
" X;X`._.+ 4 s r z p F G G I I I I %.8.@.2.6.&.<.6.&.t.! T.=XOXoX",
"&X@X$X^.: * a r x i G V K R G I S %.5.2.2.2.$.-.6.&.| ^ Y.-X@X@X",
"=X&X@X^.: & a r x i V V K K G I S $.d.2.2.2.$.;.4.$. .k !.-X#X@X",
"=X&X@X^.: & a r x i V V K L G I S $.d.2.2.2.$.;.4.$.| k !.-X@X@X",
"=X&X@X^.: & a r x i V V K L G I S $.d.2.2.2.$.;.6.$.| k Y.-X@X@X",
"&X@X@X^.: & a r x i V V K L G I S $.d.6.2.2.$.;.6.$.| k Y.-X$X$X",
"&X@X@X^.: & a r x i V V K L G I S $.d.6.2.2.$.-.6.&.| k Y.-X$X@X",
"&X@X#X^.: & a r x i V V K L G I S $.d.6.2.2.$.-.d.$.| ^ Y.-X@X@X",
"&X@X#X(.: & a r x i V V K L G I S $.d.2.2.2.$.-.d.$.| ^ Y.-X$X@X",
"&X@X@X~.: & a r f i B V K K G V I %.p.4.2.2.$.;.d.-.} g Y.-X@X$X",
"@X@X@X~.: * a r x v B G K L K U S %.a.4.2.2.$.-.4.$.} g Y.-X@X$X",
"@X@X#X~.: & r r f i B V K K G V S Y p.4.2.<.$.*.p.-.| ^ /.-X@X@X",
"@X@X#X(.: * - r x v B G K L L U U =.a.6.3.7.%.;.p.-.| j !.-X@X@X",
"&X@X#X(.: * a r f i B V H K G V U T a.4.2.1.%.=.4.*.[ g Y.-X@X@X",
"&X@X#X(.: * a r f i B V K K G V U =.a.4.2.5.%.e.d.-. .j /.-X@X@X",
"@X@X#X(.: & = r x v B G K L L U U =.g.4.2.7.=.y.4.*.| ~ /.-X@X@X",
"&X@X#X~.: @ = % % w y y i i u u u M Z Z Z A M N Z N G < !.-X@X@X"
};
