/* XPM */
static char *_62d11e20c5c4240fc85885af8695399cJcgUCHHTuLLJkQM[] = {
/* columns rows colors chars-per-pixel */
"32 32 175 2 ",
"   c #FF0100",
".  c #FF0B02",
"X  c #FF0809",
"o  c #FF1C01",
"O  c #FF1110",
"+  c #DC2905",
"@  c #CD3C07",
"#  c #D23506",
"$  c #D23A0A",
"%  c #E32104",
"&  c #FF2401",
"*  c #FF3400",
"=  c #FF3C01",
"-  c #FD2A2A",
";  c #FD3534",
":  c #BE4C09",
">  c #AF5F0B",
",  c #B6570B",
"<  c #B95309",
"1  c #A46B0C",
"2  c #A96E0B",
"3  c #AC620B",
"4  c #AD710C",
"5  c #BF7B07",
"6  c #B2740A",
"7  c #BD7B0A",
"8  c #A66E12",
"9  c #A97116",
"0  c #AB741C",
"q  c #B67A14",
"w  c #AC7720",
"e  c #AE7924",
"r  c #AE7B29",
"t  c #B07E2D",
"y  c #C74107",
"u  c #C24807",
"i  c #C14B0A",
"p  c #D44306",
"a  c #DB4705",
"s  c #D65C07",
"d  c #C45012",
"f  c #FF4502",
"g  c #FF4D01",
"h  c #FF5500",
"j  c #DE6105",
"k  c #C17D08",
"l  c #EA6803",
"z  c #FF6602",
"x  c #FF6C01",
"c  c #FF7501",
"v  c #FF7A02",
"b  c #E04E2D",
"n  c #E4573B",
"m  c #FD4C4B",
"M  c #FD5454",
"N  c #FC5D5D",
"B  c #FA6E6E",
"V  c #FE7171",
"C  c #FA7B79",
"Z  c #F97C77",
"A  c #B28234",
"S  c #C58209",
"D  c #CC8609",
"F  c #CB8306",
"G  c #D48C07",
"H  c #D98E05",
"J  c #DE9105",
"K  c #CE8C18",
"L  c #C38418",
"P  c #FF8E00",
"I  c #E39503",
"U  c #EA9904",
"Y  c #F79701",
"T  c #FD9501",
"R  c #F29E01",
"E  c #F6A103",
"W  c #FEA600",
"Q  c #FFA901",
"!  c #FEA90B",
"~  c #FEAC15",
"^  c #FBAC19",
"/  c #C78F30",
"(  c #FEB325",
")  c #FEB52B",
"_  c #FCB93C",
"`  c #BA8F4B",
"'  c #BF9755",
"]  c #BF9A59",
"[  c #CE8453",
"{  c #CE905F",
"}  c #C29B5C",
"|  c #FE874D",
" . c #FD9A56",
".. c #FDBD47",
"X. c #F89B7A",
"o. c #C7AA76",
"O. c #CAAA77",
"+. c #CEAE7C",
"@. c #F7C96F",
"#. c #F9C86E",
"$. c #EEC77F",
"%. c #FACB71",
"&. c #FCCE7B",
"*. c #F69F9E",
"=. c #FA9392",
"-. c #D5AD88",
";. c #CFB180",
":. c #CFB58B",
">. c #D1B78C",
",. c #D4B98D",
"<. c #D0B484",
"1. c #D5BB91",
"2. c #D7BF98",
"3. c #FCA6A8",
"4. c #F6AFAF",
"5. c #F9A9A7",
"6. c #F8AEB0",
"7. c #FCBDBD",
"8. c #FDB4B3",
"9. c #F4CC81",
"0. c #E0C69A",
"q. c #DDCBAE",
"w. c #DBC5A1",
"e. c #DFCEB3",
"r. c #DED0B9",
"t. c #E9C1AA",
"y. c #EAD2A8",
"u. c #F2D7A7",
"i. c #E0CFB4",
"p. c #E1D2BB",
"a. c #E1D0B5",
"s. c #F4DFB9",
"d. c #FAE2AE",
"f. c #FCE6BF",
"g. c #FCC2C1",
"h. c #F5C3C2",
"j. c #E4D6C1",
"k. c #E5D9C5",
"l. c #E6DAC9",
"z. c #EDDFC8",
"x. c #F9D7D7",
"c. c #ECE0CE",
"v. c #FDE8C1",
"b. c #F4E6CD",
"n. c #F8E5C2",
"m. c #ECE2D3",
"M. c #EAE4DA",
"N. c #F6EAD3",
"B. c #FAECD2",
"V. c #F5EDDF",
"C. c #F9EEDA",
"Z. c #F2E7D4",
"A. c #61D3FC",
"S. c #61D3FC",
"D. c #61D3FC",
"F. c #61D3FC",
"G. c #61D3FC",
"H. c #61D3FC",
"J. c #61D3FC",
"K. c #61D3FC",

"L. c #61D3FC",
"P. c #61D3FC",
"I. c #61D3FC",
"U. c #61D3FC",
"Y. c #61D3FC",
"T. c #61D3FC",
"R. c #61D3FC",
"E. c #61D3FC",
"W. c #61D3FC",
"Q. c #61D3FC",
"!. c #61D3FC",
"~. c gray99",
"^. c #61D3FC",
"/. c #61D3FC",
"(. c #61D3FC",
/* pixels */
"^.L.L.^.L.E.E.L.^.8.m m m m m m m m m g.L.E.E.L.^.L.L.^.L.E.E.A.",
"L.L.L.L.E.L.L.E.L.=.                  5.E.L.L.R.L.R.L.L.E.L.L.E.",
"L.L.L.L.E.L.U.g.M ;                   ; M M M M N x.U.L.E.L.L.E.",
"^.L.L.E.L.E.Q.*.                                O h.L.E.L.E.E.L.",
"L.E.R.L.E.L.U.t.i : : : : j c c c s : l v X.6.8.4.G.E.L.E.L.L.^.",
"E.L.L.E.L.L.L.w.4 1 1 1 1 G Q Q Q S 1 I Q d.I.L.(.L.L.E.L.L.L.L.",
"E.L.L.E.L.k.` / U D 1 k U R W W W S 1 I Q ) _ _ ..N.U.E.L.L.L.L.",
"L.E.E.L.^.i.1 k Q H 1 F W W W W W D 2 J W W W W ! f.K.J.E.L.L.^.",
"^.L.L.E.L.e.8 k W H 1 4 6 H W W W R U S 6 U W W W ( ..C.L.E.E.L.",
"L.L.L.L.Q.i.8 7 E H 4 4 2 G W W W E E 7 1 J E E E ~ ) N.E.L.L.E.",
"L.L.L.L.Q.i.8 2 6 F R R R E W W W D 6 2 1 4 6 6 q y.C.J.E.L.L.E.",
"^.L.L.E.L.p.t r r K W W W W W W W D 4 4 6 6 4 w A l.U.E.L.L.E.L.",
"L.E.E.L.Q.F.M.D.M.9.W W Q W W W W E R R R R E u.M.L.E.L.E.L.L.^.",
"E.L.L.E.L.E.E.F.M.$.R Y P Y R R R R R ^ ( ( ) n.Q.L.L.E.L.L.L.L.",
"E.L.L.E.L.E.Q.q.e 0 4 p . p 4 4 4 4 4 0.H.H.H.L.Q.L.L.E.L.L.L.L.",
"A.E.E.L.^.D.l.,.1 1 1 @   # 1 1 1 > , -.m.l.l.c.k.J.E.L.E.L.L.^.",
"^.L.L.^.U.p.w 9 1 1 1 @   # 1 1 1 #   d 0 0 0 0 e l.U.Q.L.E.E.L.",
"L.L.E.D.j.>.1 1 1 1 1 @   + < < < %   u 1 1 1 1 9 2.k.J.E.L.L.E.",
"L.L.E.j.0 8 1 1 1 1 1 @               i 1 1 1 1 1 8 r m.E.L.L.E.",
"^.L.L.z.L 5 k 6 1 > : a * o       o * p : 3 1 7 k 5 L Z.L.E.E.L.",
"L.E.Q.s.! W W J 1 y   g Q h       z W *   : 1 I W W ~ b.Q.L.L.^.",
"E.L.U.f.! W W U S a   * c =       f c &   s S R W W ~ B.L.L.L.L.",
"E.L.U.f.! W W W Q z                       v Q W W W ~ B.L.L.L.L.",
"L.E.Q.s.! W W T x =                       g x T W W ~ b.Q.L.L.^.",
"^.L.U.v.! W Q x                               v W W ~ B.L.E.E.A.",
"L.L.U.N.&.#.%.|           ; B V B -         .  .@.%.&.V.E.L.L.E.",
"L.L.L.L.E.U.Q.3.          C Q.E.U.N         X 7.Y.U.U.L.E.L.L.E.",
"^.L.L.E.L.m.<.[ # # # n Z 7.E.L.E.6.Z b # # $ { ,.M.L.E.L.E.E.L.",
"L.E.R.L.^.a.1 1 1 1 1 o.^.L.L.E.L.E.E.] 1 1 1 1 9 z.Q.L.E.L.L.^.",
"E.L.U.M.+.' 1 1 1 1 1 O.L.L.L.L.E.L.L.} 1 1 1 1 8 } ;.D.L.L.L.L.",
"E.L.U.j.8 1 1 1 1 1 1 O.L.L.L.L.E.L.L.} 1 1 1 1 1 1 0 m.L.L.L.L.",
"A.E.E.M.2.>.>.1.:.1.,.r.^.L.L.^.L.E.E.q.,.>.>.1.:.,.2.S.^.L.L.^."
};
