/* XPM */
static char *_1ebd0c803854bfacddde564ddc6ef8cSeFpeVIKAwjgGJGl[] = {
/* columns rows colors chars-per-pixel */
"32 32 128 2 ",
"   c #BF7B5C",
".  c #B96139",
"X  c #B9623A",
"o  c #BA623A",
"O  c #B4633E",
"+  c #B6988B",
"@  c #BFA193",
"#  c #BA6944",
"$  c #B86139",
"%  c #B07357",
"&  c #A3522D",
"*  c #AA5731",
"=  c #AB5731",
"-  c #AB5831",
";  c #A2522E",
":  c #62351F",
">  c #6B3922",
",  c #A7552F",
"<  c #A95731",
"1  c #8D4728",
"2  c #A1522E",
"3  c #5F321D",
"4  c #68361F",
"5  c #A95631",
"6  c #60321D",
"7  c #A2532E",
"8  c #60331D",
"9  c #A3532E",
"0  c #61331D",
"q  c #9F502B",
"w  c #A75630",
"e  c #A85630",
"r  c #A85631",
"t  c #A0522E",
"y  c #67361F",
"u  c #A5542F",
"i  c #A75530",
"p  c #8A4526",
"a  c #8B6756",
"s  c #59301D",
"d  c #5A311D",
"f  c #472718",
"g  c #482818",
"h  c #58301D",
"j  c #836151",
"k  c #B9ABA4",
"l  c #4C2D1E",
"z  c #48291A",
"x  c #49291A",
"c  c #462819",
"v  c #3A2215",
"b  c #3B2215",
"n  c #4A2A1A",
"m  c #4B2C1D",
"M  c #B5A7A1",
"N  c #BE8267",
"B  c #A95A35",
"V  c #A95935",
"C  c #AA5A35",
"Z  c #9E5331",
"A  c #542E1B",
"S  c #A15532",
"D  c #AA5A36",
"F  c #9B5230",
"G  c #512C1A",
"H  c #A85935",
"J  c #B0775D",
"K  c #AC5832",
"L  c #A6542F",
"P  c #64341E",
"I  c #66361F",
"U  c #5D311C",
"Y  c #693720",
"T  c #A95630",
"R  c #8D4727",
"E  c #A2522D",
"W  c #A4532F",
"Q  c #66351F",
"!  c #A0512E",
"~  c #5C311C",
"^  c #A4542F",
"/  c #9F502C",
"(  c #65351F",
")  c #9E512D",
"_  c #8B6958",
"`  c #5A301D",
"'  c #5B311D",
"]  c #582F1C",
"[  c #452617",
"{  c #836252",
"}  c #B8ABA5",
"|  c #472819",
" . c #482919",
".. c #442718",
"X. c #392115",
"o. c #3A2115",
"O. c #452718",
"+. c #4A291A",
"@. c #4A2B1D",
"#. c #B4A7A1",
"$. c #BE8368",
"%. c #9D5331",
"&. c #542D1B",
"*. c #A05432",
"=. c #A75935",
"-. c #B1775D",
";. c #63341E",
":. c #68371F",
">. c #8E4727",
",. c #A4532E",
"<. c #62341E",
"1. c #8D4828",
"2. c #A0512D",
"3. c #A1522D",
"4. c #643520",
"5. c #693821",
"6. c #8B4627",
"7. c #8A604C",
"8. c #61341E",
"9. c #61341F",
"0. c #61331E",
"q. c #683C27",
"w. c #A79186",
"e. c #AB9489",
"r. c #6B3E29",
"t. c #60331E",
"y. c #7C5847",
"u. c white",
/* pixels */
"  . X X X X X X X X X X X o O + @ # . X X X X X X X X X X X $ % ",
"& * = * * * * * * * * * * - ; : > , - * * * * * * * * * * = < 1 ",
"; * * * * * * * * * * * * = 2 3 4 , * * * * * * * * * * * * 5 1 ",
"; * * * * * * * * * * * * = ; 3 4 , * * * * * * * * * * * * 5 1 ",
"; * * * * * * * * * * * * = ; 6 4 , * * * * * * * * * * * * 5 1 ",
"; * * * * * * * * * * * * = ; 6 4 , * * * * * * * * * * * * 5 1 ",
"; * * * * * * * * * * * * = 7 8 4 , * * * * * * * * * * * * 5 1 ",
"; * * * * * * * * * * * * = 9 0 4 , * * * * * * * * * * * * < 1 ",
"q w e e e e e e e e e e e r t 6 y u r e e e e e e e e e e e i p ",
"a s s s s s s d d s s s s s s f g h s s s s s d d s s s s s s j ",
"k l z x x x c v b c x x x x x n n x x x x x c b b c x x x x m M ",
"N B V B B C Z A h S B B V B B V B B B B V D F G h S B B V B H J ",
"& = K K K K L P I e K K K K K K K K K K K K 2 U Y T K K K K = R ",
"E * * * * * W P Q , * * * * * * * * * * * = ! ~ 4 , * * * * 5 1 ",
"; * * * * * ^ P I , * * * * * * * * * * * = ! ~ 4 , * * * * 5 1 ",
"; * * * * * u P Q , * * * * * * * * * * * = ! U 4 , * * * * 5 1 ",
"E * * * * * u P I , * * * * * * * * * * * = ! U 4 , * * * * 5 1 ",
"; * * * * * u P Q , * * * * * * * * * * * = ! U 4 , * * * * 5 1 ",
"; * * * * * u P Q , * * * * * * * * * * * = t U 4 , * * * * < 1 ",
"/ e r r r 5 9 P ( u r r r r r r r r r r r 5 ) ~ y u r r r r w p ",
"_ d d d d d ` g f s d d d d d ' ' d d d d d ] [ g s d d d d d { ",
"} m | | | | z n n  .| | | | ..X.o.O.| | | | z +.n  .| | | | @.#.",
"$.H H H H H H H H H H H H B %.&.h *.V H H V H H H V H H H H =.-.",
"& - K K K K K K K K K K K K u ;.:.T K K K K K K K K K K K K = >.",
"; * * * * * * * * * * * * * ,.<.4 , * * * * * * * * * * * * 5 1 ",
"; * * * * * * * * * * * * * ,.;.4 , * * * * * * * * * * * * 5 1.",
"; * * * * * * * * * * * * * ,.;.4 , * * * * * * * * * * * * 5 1.",
"; * * * * * * * * * * * * * ,.;.4 , * * * * * * * * * * * * 5 1 ",
"E * * * * * * * * * * * * * ,.;.y , * * * * * * * * * * * * 5 1.",
"; * * * * * * * * * * * * = ,.;.y , * * * * * * * * * * * * < 1.",
"2.i e e e e e e e e e e e r 3.4.5.,.e e e e e e e e e e e e i 6.",
"7.8.9.9.9.9.9.9.9.9.9.9.9.0.q.w.e.r.0.9.9.9.9.9.9.9.9.9.9.9.t.y."
};
